<?xml version="1.0" encoding="utf-8"?>
<!-- Generator: Adobe Illustrator 24.0.2, SVG Export Plug-In . SVG Version: 6.00 Build 0)  -->
<svg version="1.1" id="Слой_1" xmlns="http://www.w3.org/2000/svg" xmlns:xlink="http://www.w3.org/1999/xlink" x="0px" y="0px"
	 viewBox="0 0 10 10" style="enable-background:new 0 0 10 10;" xml:space="preserve">
<path class="st0" d="M5.9,5l3.9-3.9c0.3-0.3,0.3-0.6,0-0.9s-0.6-0.3-0.9,0L5,4.1L1.1,0.2c-0.3-0.3-0.6-0.3-0.9,0s-0.3,0.6,0,0.9
	L4.1,5L0.2,8.9c-0.3,0.3-0.3,0.6,0,0.9s0.6,0.3,0.9,0L5,5.9l3.9,3.9c0.3,0.3,0.6,0.3,0.9,0s0.3-0.6,0-0.9L5.9,5z"/>
</svg>
